<mxfile host="app.diagrams.net" agent="Mozilla/5.0 (Windows NT 10.0; Win64; x64) AppleWebKit/537.36 (KHTML, like Gecko) Chrome/134.0.0.0 Safari/537.36" version="26.2.2">
  <diagram name="Page-1" id="Yag0mdinwdJECd6g6KUp">
    <mxGraphModel dx="1976" dy="1744" grid="1" gridSize="10" guides="1" tooltips="1" connect="1" arrows="1" fold="1" page="1" pageScale="1" pageWidth="850" pageHeight="1100" math="0" shadow="0">
      <root>
        <mxCell id="0" />
        <mxCell id="1" parent="0" />
        <mxCell id="W-08lDt5VjioLUpuFYYB-1" value="" style="rounded=1;whiteSpace=wrap;html=1;strokeColor=#0070F2;fillColor=#EBF8FF;arcSize=24;absoluteArcSize=1;imageWidth=64;imageHeight=64;strokeWidth=1.5;" vertex="1" parent="1">
          <mxGeometry x="-50" y="-170" width="830" height="610" as="geometry" />
        </mxCell>
        <mxCell id="W-08lDt5VjioLUpuFYYB-2" value="BTP" style="image;image=img/lib/sap/SAP_Logo.svg;editableCssRules=.*;part=1;verticalLabelPosition=middle;labelBackgroundColor=none;verticalAlign=middle;imageAspect=0;labelPosition=right;align=left;fontSize=16;fontStyle=1;spacingLeft=0;fontColor=#002A86;spacing=0;" vertex="1" parent="W-08lDt5VjioLUpuFYYB-1">
          <mxGeometry width="37" height="19" relative="1" as="geometry">
            <mxPoint x="20" y="20" as="offset" />
          </mxGeometry>
        </mxCell>
        <mxCell id="W-08lDt5VjioLUpuFYYB-3" value="Subaccount&lt;div&gt;&lt;br&gt;&lt;/div&gt;" style="rounded=1;whiteSpace=wrap;html=1;strokeColor=#475E75;fillColor=#ffffff;arcSize=24;absoluteArcSize=1;imageWidth=64;imageHeight=64;strokeWidth=1.5;part=1;verticalAlign=top;align=left;fontSize=16;fontStyle=1;spacingLeft=10;spacingTop=10;" vertex="1" parent="W-08lDt5VjioLUpuFYYB-1">
          <mxGeometry x="10" y="50" width="810" height="430" as="geometry" />
        </mxCell>
        <mxCell id="W-08lDt5VjioLUpuFYYB-20" value="" style="rounded=1;whiteSpace=wrap;html=1;strokeColor=#0070F2;fillColor=#EBF8FF;arcSize=24;absoluteArcSize=1;imageWidth=64;imageHeight=64;strokeWidth=1.5;" vertex="1" parent="W-08lDt5VjioLUpuFYYB-1">
          <mxGeometry x="180" y="118" width="160" height="120" as="geometry" />
        </mxCell>
        <mxCell id="W-08lDt5VjioLUpuFYYB-22" value="SAP Integration Suite" style="shape=mxgraph.sap.icon;labelPosition=center;verticalLabelPosition=bottom;align=center;verticalAlign=top;strokeWidth=1;strokeColor=#D5DADD;fillColor=#EDEFF0;gradientColor=#FCFCFC;gradientDirection=west;aspect=fixed;SAPIcon=SAP_Integration_Suite_-_Cloud_Integration" vertex="1" parent="W-08lDt5VjioLUpuFYYB-1">
          <mxGeometry x="235" y="140" width="50" height="50" as="geometry" />
        </mxCell>
        <mxCell id="W-08lDt5VjioLUpuFYYB-32" value="" style="rounded=1;whiteSpace=wrap;html=1;strokeColor=#0070F2;fillColor=#EBF8FF;arcSize=24;absoluteArcSize=1;imageWidth=64;imageHeight=64;strokeWidth=1.5;" vertex="1" parent="W-08lDt5VjioLUpuFYYB-1">
          <mxGeometry x="625" y="100" width="160" height="170" as="geometry" />
        </mxCell>
        <mxCell id="W-08lDt5VjioLUpuFYYB-48" value="" style="rounded=1;whiteSpace=wrap;html=1;strokeColor=#0070F2;fillColor=#EBF8FF;arcSize=24;absoluteArcSize=1;imageWidth=64;imageHeight=64;strokeWidth=1.5;" vertex="1" parent="W-08lDt5VjioLUpuFYYB-1">
          <mxGeometry x="308.01" y="290" width="160" height="180" as="geometry" />
        </mxCell>
        <mxCell id="W-08lDt5VjioLUpuFYYB-49" value="&lt;font face=&quot;arial&quot; style=&quot;font-size: 16px;&quot;&gt;&lt;b style=&quot;font-size: 16px;&quot;&gt;Destination Service&lt;/b&gt;&lt;/font&gt;" style="text;html=1;align=center;verticalAlign=middle;resizable=0;points=[[0,0.5,0,0,0],[0.5,0,0,0,0],[0.5,1,0,0,0],[1,0.5,0,0,0]];autosize=1;strokeColor=none;fillColor=none;fontSize=12;fontColor=#1D2D3E;fontFamily=Helvetica;" vertex="1" parent="W-08lDt5VjioLUpuFYYB-1">
          <mxGeometry x="308.01" y="298" width="170" height="30" as="geometry" />
        </mxCell>
        <mxCell id="W-08lDt5VjioLUpuFYYB-99" style="edgeStyle=orthogonalEdgeStyle;rounded=0;orthogonalLoop=1;jettySize=auto;html=1;entryX=1;entryY=0.5;entryDx=0;entryDy=0;" edge="1" parent="W-08lDt5VjioLUpuFYYB-1" source="W-08lDt5VjioLUpuFYYB-50" target="W-08lDt5VjioLUpuFYYB-86">
          <mxGeometry relative="1" as="geometry" />
        </mxCell>
        <mxCell id="W-08lDt5VjioLUpuFYYB-50" value="" style="shape=mxgraph.sap.icon;labelPosition=center;verticalLabelPosition=bottom;align=center;verticalAlign=top;strokeWidth=1;strokeColor=#D5DADD;fillColor=#EDEFF0;gradientColor=#FCFCFC;gradientDirection=west;aspect=fixed;SAPIcon=SAP_Destination_service" vertex="1" parent="W-08lDt5VjioLUpuFYYB-1">
          <mxGeometry x="368.01" y="410" width="50" height="50" as="geometry" />
        </mxCell>
        <mxCell id="W-08lDt5VjioLUpuFYYB-54" value="" style="shape=mxgraph.sap.icon;labelPosition=center;verticalLabelPosition=bottom;align=center;verticalAlign=top;strokeWidth=1;strokeColor=#D5DADD;fillColor=#EDEFF0;gradientColor=#FCFCFC;gradientDirection=west;aspect=fixed;SAPIcon=SAP_Destination_service" vertex="1" parent="W-08lDt5VjioLUpuFYYB-1">
          <mxGeometry x="368.01" y="330" width="50" height="50" as="geometry" />
        </mxCell>
        <mxCell id="W-08lDt5VjioLUpuFYYB-57" value="&lt;b style=&quot;font-family: arial; font-size: 16px;&quot;&gt;SAP CAP&lt;/b&gt;" style="text;html=1;align=center;verticalAlign=middle;resizable=0;points=[[0,0.5,0,0,0],[0.5,0,0,0,0],[0.5,1,0,0,0],[1,0.5,0,0,0]];autosize=1;strokeColor=none;fillColor=none;fontSize=12;fontColor=#1D2D3E;fontFamily=Helvetica;" vertex="1" parent="W-08lDt5VjioLUpuFYYB-1">
          <mxGeometry x="670" y="100" width="90" height="30" as="geometry" />
        </mxCell>
        <mxCell id="W-08lDt5VjioLUpuFYYB-58" value="" style="strokeColor=#0070F2;shadow=0;strokeWidth=2;rounded=1;absoluteArcSize=1;arcSize=20;" vertex="1" parent="W-08lDt5VjioLUpuFYYB-1">
          <mxGeometry x="650" y="145" width="130" height="40" as="geometry" />
        </mxCell>
        <mxCell id="W-08lDt5VjioLUpuFYYB-60" value="&lt;font face=&quot;arial&quot; style=&quot;font-size: 16px;&quot;&gt;&lt;b style=&quot;font-size: 16px;&quot;&gt;Node JS&lt;/b&gt;&lt;/font&gt;" style="text;html=1;align=center;verticalAlign=middle;resizable=0;points=[[0,0.5,0,0,0],[0.5,0,0,0,0],[0.5,1,0,0,0],[1,0.5,0,0,0]];autosize=1;strokeColor=none;fillColor=none;fontSize=12;fontColor=#1D2D3E;fontFamily=Helvetica;" vertex="1" parent="W-08lDt5VjioLUpuFYYB-1">
          <mxGeometry x="660" y="150" width="90" height="30" as="geometry" />
        </mxCell>
        <mxCell id="W-08lDt5VjioLUpuFYYB-62" style="edgeStyle=orthogonalEdgeStyle;rounded=0;orthogonalLoop=1;jettySize=auto;html=1;entryX=1;entryY=0.5;entryDx=0;entryDy=0;entryPerimeter=0;" edge="1" parent="W-08lDt5VjioLUpuFYYB-1" source="W-08lDt5VjioLUpuFYYB-32" target="W-08lDt5VjioLUpuFYYB-50">
          <mxGeometry relative="1" as="geometry" />
        </mxCell>
        <mxCell id="W-08lDt5VjioLUpuFYYB-65" style="edgeStyle=orthogonalEdgeStyle;rounded=0;orthogonalLoop=1;jettySize=auto;html=1;entryX=1;entryY=0.5;entryDx=0;entryDy=0;entryPerimeter=0;" edge="1" parent="W-08lDt5VjioLUpuFYYB-1" source="W-08lDt5VjioLUpuFYYB-32" target="W-08lDt5VjioLUpuFYYB-54">
          <mxGeometry relative="1" as="geometry" />
        </mxCell>
        <mxCell id="W-08lDt5VjioLUpuFYYB-66" style="edgeStyle=orthogonalEdgeStyle;rounded=0;orthogonalLoop=1;jettySize=auto;html=1;entryX=0.671;entryY=0.975;entryDx=0;entryDy=0;entryPerimeter=0;" edge="1" parent="W-08lDt5VjioLUpuFYYB-1" source="W-08lDt5VjioLUpuFYYB-54" target="W-08lDt5VjioLUpuFYYB-20">
          <mxGeometry relative="1" as="geometry" />
        </mxCell>
        <mxCell id="W-08lDt5VjioLUpuFYYB-67" value="&lt;p style=&quot;line-height: 114%;&quot;&gt;&lt;font color=&quot;#188918&quot; size=&quot;1&quot;&gt;&lt;b style=&quot;&quot;&gt;https Post&lt;/b&gt;&lt;/font&gt;&lt;/p&gt;" style="rounded=1;whiteSpace=wrap;html=1;arcSize=50;strokeColor=#188918;fillColor=#f5fae5;fontColor=#266f3a;strokeWidth=1.5;" vertex="1" parent="W-08lDt5VjioLUpuFYYB-1">
          <mxGeometry x="380" y="150" width="80" height="16" as="geometry" />
        </mxCell>
        <mxCell id="W-08lDt5VjioLUpuFYYB-68" value="" style="endArrow=none;html=1;rounded=0;entryX=0;entryY=0.5;entryDx=0;entryDy=0;strokeColor=#178b1b;strokeWidth=1.5;" edge="1" target="W-08lDt5VjioLUpuFYYB-67" parent="W-08lDt5VjioLUpuFYYB-1">
          <mxGeometry width="50" height="50" relative="1" as="geometry">
            <mxPoint x="340" y="158" as="sourcePoint" />
            <mxPoint x="400" y="148" as="targetPoint" />
          </mxGeometry>
        </mxCell>
        <mxCell id="W-08lDt5VjioLUpuFYYB-69" value="" style="endArrow=blockThin;html=1;rounded=0;entryX=0;entryY=0.5;entryDx=0;entryDy=0;strokeColor=#178b1b;strokeWidth=1.5;exitX=1.015;exitY=0.505;exitDx=0;exitDy=0;exitPerimeter=0;endFill=1;endSize=4;startSize=4;" edge="1" source="W-08lDt5VjioLUpuFYYB-67" parent="W-08lDt5VjioLUpuFYYB-1">
          <mxGeometry width="50" height="50" relative="1" as="geometry">
            <mxPoint x="425" y="157.95" as="sourcePoint" />
            <mxPoint x="465" y="157.95" as="targetPoint" />
          </mxGeometry>
        </mxCell>
        <mxCell id="W-08lDt5VjioLUpuFYYB-86" value="&lt;p style=&quot;line-height: 114%;&quot;&gt;&lt;font size=&quot;1&quot; color=&quot;#188918&quot;&gt;&lt;b&gt;https Get/Post&lt;/b&gt;&lt;/font&gt;&lt;/p&gt;" style="rounded=1;whiteSpace=wrap;html=1;arcSize=50;strokeColor=#188918;fillColor=#f5fae5;fontColor=#266f3a;strokeWidth=1.5;" vertex="1" parent="W-08lDt5VjioLUpuFYYB-1">
          <mxGeometry x="150" y="364" width="91.99" height="16" as="geometry" />
        </mxCell>
        <mxCell id="W-08lDt5VjioLUpuFYYB-98" style="edgeStyle=orthogonalEdgeStyle;rounded=0;orthogonalLoop=1;jettySize=auto;html=1;entryX=0.026;entryY=0.346;entryDx=0;entryDy=0;entryPerimeter=0;" edge="1" parent="W-08lDt5VjioLUpuFYYB-1" source="W-08lDt5VjioLUpuFYYB-67" target="W-08lDt5VjioLUpuFYYB-32">
          <mxGeometry relative="1" as="geometry" />
        </mxCell>
        <mxCell id="W-08lDt5VjioLUpuFYYB-23" value="" style="rounded=1;whiteSpace=wrap;html=1;strokeColor=#0070F2;fillColor=#EBF8FF;arcSize=24;absoluteArcSize=1;imageWidth=64;imageHeight=64;strokeWidth=1.5;" vertex="1" parent="1">
          <mxGeometry x="-320" y="-80" width="170" height="160" as="geometry" />
        </mxCell>
        <mxCell id="W-08lDt5VjioLUpuFYYB-25" value="&lt;p style=&quot;line-height: 114%;&quot;&gt;&lt;font color=&quot;#475f75&quot; size=&quot;1&quot;&gt;&lt;b style=&quot;&quot;&gt;https Post&lt;/b&gt;&lt;/font&gt;&lt;/p&gt;" style="rounded=1;whiteSpace=wrap;html=1;arcSize=50;strokeColor=#475f75;fillColor=#f5f6f7;fontColor=#266f3a;strokeWidth=1.5;" vertex="1" parent="1">
          <mxGeometry x="-110" width="110" height="16" as="geometry" />
        </mxCell>
        <mxCell id="W-08lDt5VjioLUpuFYYB-26" value="" style="endArrow=none;html=1;rounded=0;entryX=0;entryY=0.5;entryDx=0;entryDy=0;strokeColor=#475f75;strokeWidth=1.5;" edge="1" target="W-08lDt5VjioLUpuFYYB-25" parent="1">
          <mxGeometry width="50" height="50" relative="1" as="geometry">
            <mxPoint x="-150" y="8" as="sourcePoint" />
            <mxPoint x="-90" y="-2" as="targetPoint" />
          </mxGeometry>
        </mxCell>
        <mxCell id="W-08lDt5VjioLUpuFYYB-27" value="" style="endArrow=blockThin;html=1;rounded=0;strokeColor=#475f75;strokeWidth=1.5;exitX=1.015;exitY=0.505;exitDx=0;exitDy=0;exitPerimeter=0;endFill=1;endSize=4;startSize=4;" edge="1" source="W-08lDt5VjioLUpuFYYB-25" parent="1" target="W-08lDt5VjioLUpuFYYB-20">
          <mxGeometry width="50" height="50" relative="1" as="geometry">
            <mxPoint x="-65" y="7.9500000000000455" as="sourcePoint" />
            <mxPoint x="-25" y="7.9500000000000455" as="targetPoint" />
          </mxGeometry>
        </mxCell>
        <mxCell id="W-08lDt5VjioLUpuFYYB-31" value="Sales and Service&#xa;Cloud" style="image;image=img/lib/sap/SAP_Logo.svg;editableCssRules=.*;verticalLabelPosition=middle;labelBackgroundColor=none;verticalAlign=middle;imageAspect=0;labelPosition=right;align=left;fontSize=16;fontStyle=1;spacingLeft=0;fontColor=#002A86;spacing=0;" vertex="1" parent="1">
          <mxGeometry x="-320" y="-36" width="37" height="19" as="geometry" />
        </mxCell>
        <mxCell id="W-08lDt5VjioLUpuFYYB-38" value="" style="rounded=1;whiteSpace=wrap;html=1;strokeColor=#0070F2;fillColor=#EBF8FF;arcSize=24;absoluteArcSize=1;imageWidth=64;imageHeight=64;strokeWidth=1.5;" vertex="1" parent="1">
          <mxGeometry x="-310" y="160" width="160" height="160" as="geometry" />
        </mxCell>
        <mxCell id="W-08lDt5VjioLUpuFYYB-36" value="Share Point Cloud" style="sketch=0;pointerEvents=1;shadow=0;dashed=0;html=1;strokeColor=none;fillColor=#505050;labelPosition=center;verticalLabelPosition=bottom;outlineConnect=0;verticalAlign=top;align=center;shape=mxgraph.office.clouds.cloud_sharepoint;" vertex="1" parent="1">
          <mxGeometry x="-275.5" y="200" width="101" height="61" as="geometry" />
        </mxCell>
        <mxCell id="W-08lDt5VjioLUpuFYYB-39" value="&lt;p style=&quot;line-height: 114%;&quot;&gt;&lt;font color=&quot;#07838f&quot; size=&quot;1&quot;&gt;&lt;b style=&quot;&quot;&gt;https Get&lt;/b&gt;&lt;/font&gt;&lt;/p&gt;" style="rounded=1;whiteSpace=wrap;html=1;arcSize=50;strokeColor=#07838f;fillColor=#dafdf5;fontColor=#266f3a;strokeWidth=1.5;" vertex="1" parent="1">
          <mxGeometry x="-90" y="232" width="100" height="16" as="geometry" />
        </mxCell>
        <mxCell id="W-08lDt5VjioLUpuFYYB-40" value="" style="endArrow=none;html=1;rounded=0;entryX=0;entryY=0.5;entryDx=0;entryDy=0;strokeColor=#07838f;strokeWidth=1.5;" edge="1" target="W-08lDt5VjioLUpuFYYB-39" parent="1">
          <mxGeometry width="50" height="50" relative="1" as="geometry">
            <mxPoint x="-130" y="240" as="sourcePoint" />
            <mxPoint x="-70" y="230" as="targetPoint" />
            <Array as="points">
              <mxPoint x="-150" y="240" />
            </Array>
          </mxGeometry>
        </mxCell>
        <mxCell id="W-08lDt5VjioLUpuFYYB-74" style="edgeStyle=orthogonalEdgeStyle;rounded=0;orthogonalLoop=1;jettySize=auto;html=1;entryX=1;entryY=0.5;entryDx=0;entryDy=0;" edge="1" parent="1" source="W-08lDt5VjioLUpuFYYB-20" target="W-08lDt5VjioLUpuFYYB-39">
          <mxGeometry relative="1" as="geometry" />
        </mxCell>
        <mxCell id="W-08lDt5VjioLUpuFYYB-95" style="edgeStyle=orthogonalEdgeStyle;rounded=0;orthogonalLoop=1;jettySize=auto;html=1;entryX=1;entryY=0.75;entryDx=0;entryDy=0;" edge="1" parent="1" source="W-08lDt5VjioLUpuFYYB-86" target="W-08lDt5VjioLUpuFYYB-23">
          <mxGeometry relative="1" as="geometry" />
        </mxCell>
      </root>
    </mxGraphModel>
  </diagram>
</mxfile>
